<svg width="54" height="54" viewBox="0 0 54 54" fill="none" xmlns="http://www.w3.org/2000/svg">
<path d="M26.7762 0C11.9886 0 0 11.9886 0 26.7762C0 41.5639 11.9886 53.5525 26.7762 53.5525C41.5639 53.5525 53.5525 41.5639 53.5525 26.7762C53.5525 11.9886 41.5639 0 26.7762 0ZM48.1972 26.7762C48.2024 31.5332 46.6175 36.1554 43.6943 39.9082L39.5824 35.7962C40.4848 34.6145 40.9435 33.2561 40.9435 31.712C40.9435 30.4065 40.6535 29.2245 40.0733 28.1659C39.4932 27.1056 38.628 26.255 37.4778 25.6141C38.6012 24.9715 39.3313 24.2146 39.6681 23.3435C40.0049 22.4712 40.1733 21.6557 40.1733 20.8971C40.1733 19.2072 39.5351 17.7657 38.2588 16.5727C36.9836 15.3803 35.1828 14.784 32.8562 14.784C29.3664 14.784 28.7282 15.3803 27.4528 16.5727C26.1764 17.7657 25.5386 19.2072 25.5392 20.8971C25.5392 21.2032 25.574 21.5201 25.6293 21.8449L22.7634 18.979V15.1455H18.9451L18.9433 15.1589L13.6434 9.85901C17.3963 6.93532 22.0189 5.35007 26.7762 5.35525C38.6069 5.35525 48.1972 14.9456 48.1972 26.7762ZM29.9207 21.4094C29.9207 20.4901 30.181 19.7707 30.7016 19.2512C31.2217 18.7324 31.9429 18.4729 32.8651 18.4729C33.7981 18.4729 34.5193 18.7324 35.0287 19.2512C35.5374 19.7707 35.7921 20.4901 35.7927 21.4094C35.7927 22.2543 35.538 22.944 35.0287 23.4783C34.5193 24.0138 33.7981 24.2813 32.8651 24.2807C31.9429 24.2807 31.2217 24.0132 30.7016 23.4783C30.1804 22.9451 29.9201 22.2555 29.9207 21.4094ZM32.8732 27.7803C33.8996 27.7803 34.7151 28.0877 35.3196 28.7023C35.9242 29.3176 36.2265 30.2188 36.2265 31.4058C36.2265 31.7459 36.1916 32.0565 36.139 32.3528L31.7325 27.9464C32.1028 27.8365 32.4869 27.7805 32.8732 27.7803ZM5.35525 26.7762C5.35001 22.0193 6.93494 17.3971 9.85812 13.6443L15.2446 19.0308C14.6448 19.1245 13.7755 19.1994 12.6089 19.2512V22.3635H18.0811V38.4087H22.7652V26.5522L25.2509 29.0379C24.9274 29.8918 24.7647 30.7981 24.7707 31.7111C24.7707 33.6681 25.4401 35.3342 26.7789 36.7093C28.1165 38.0832 30.0867 38.7702 32.6893 38.7702C33.4435 38.7702 34.1442 38.7059 34.8011 38.5899L39.9073 43.6961C36.1545 46.6185 31.5327 48.2028 26.7762 48.1972C14.9456 48.1972 5.35525 38.6078 5.35525 26.7762Z" fill="white"/>
</svg>
